<?xml version="1.0" encoding="UTF-8"?>
<svg version="1.1" xmlns="http://www.w3.org/2000/svg" width="2000" height="519">
<path d="M0 0 C20.79 0 41.58 0 63 0 C63 130.68 63 261.36 63 396 C44.19 396 25.38 396 6 396 C4.0625 381.6875 4.0625 381.6875 3.45727539 377.18237305 C3.29735107 376.01230713 3.13742676 374.84224121 2.97265625 373.63671875 C2.81031494 372.43748779 2.64797363 371.23825684 2.48071289 370.00268555 C2.07695449 366.9603927 2.07695449 366.9603927 1 364 C0.58492187 364.46148437 0.16984375 364.92296875 -0.2578125 365.3984375 C-6.46816998 371.97258161 -13.51012566 377.00675044 -21 382 C-21.95777344 382.64195312 -22.91554688 383.28390625 -23.90234375 383.9453125 C-50.29985492 400.45764067 -86.38511139 403.72072615 -116.47827148 396.83666992 C-118.67060793 396.27417347 -120.8345483 395.65804892 -123 395 C-124.06057617 394.67854004 -124.06057617 394.67854004 -125.14257812 394.35058594 C-155.47670209 384.76477951 -178.4127571 362.86258377 -192.99951172 334.96533203 C-201.03764451 319.1754421 -205.53114246 302.4720792 -208 285 C-208.185625 283.69417969 -208.37125 282.38835937 -208.5625 281.04296875 C-209.32424805 273.83103424 -209.24434682 266.55699765 -209.25 259.3125 C-209.25067474 258.53543701 -209.25134949 257.75837402 -209.25204468 256.95776367 C-209.23436879 244.10821959 -208.58326241 231.62386724 -206 219 C-205.83902832 218.20319824 -205.67805664 217.40639648 -205.51220703 216.58544922 C-200.75926369 194.12653636 -190.86836535 173.48355214 -176 156 C-175.40960938 155.26394531 -174.81921875 154.52789062 -174.2109375 153.76953125 C-156.70300927 132.72276647 -129.20553737 120.25674031 -102.32885742 117.1809082 C-86.24111915 115.93119502 -69.71649434 116.15090519 -54 120 C-53.34209473 120.1556543 -52.68418945 120.31130859 -52.00634766 120.47167969 C-32.51695461 125.27098464 -15.11405062 135.88594938 -1 150 C-0.505 75.75 -0.505 75.75 0 0 Z M-122 196 C-139.22053612 216.39016041 -143.50130031 243.11700526 -142 269 C-139.92549085 292.05161812 -130.75853781 313.68443565 -113 329 C-101.91242355 337.34604737 -89.76079334 341.69805897 -76 343 C-75.25621094 343.0721875 -74.51242187 343.144375 -73.74609375 343.21875 C-57.20636935 343.97198223 -40.3194114 337.78566942 -28 327 C-27.39929688 326.54109375 -26.79859375 326.0821875 -26.1796875 325.609375 C-10.7073502 313.53678894 -3.77292178 293.36348553 -0.421875 274.796875 C2.66476209 247.0171412 -1.27955869 220.26270633 -19 198 C-29.87266254 185.21455424 -44.22043213 176.54879512 -61 174 C-85.1433909 172.39452155 -105.10542108 178.08527714 -122 196 Z " fill="#17BCFB" transform="translate(532,5)"/>
<path d="M0 0 C86.79 0 173.58 0 263 0 C263 18.15 263 36.3 263 55 C197.99 55 132.98 55 66 55 C66 90.31 66 125.62 66 162 C114.84 162 163.68 162 214 162 C214 180.48 214 198.96 214 218 C165.16 218 116.32 218 66 218 C66 254.63 66 291.26 66 329 C131.01 329 196.02 329 263 329 C263 347.48 263 365.96 263 385 C176.21 385 89.42 385 0 385 C0 257.95 0 130.9 0 0 Z " fill="#05D5FE" transform="translate(20,16)"/>
<path d="M0 0 C1.27125732 0.00491455 2.54251465 0.0098291 3.85229492 0.01489258 C13.47574957 0.13447288 22.43606996 0.91638522 31.75 3.3125 C32.40677734 3.47878906 33.06355469 3.64507812 33.74023438 3.81640625 C53.70906786 9.01562037 69.7814355 19.22140307 84.75 33.3125 C85.35328125 33.85132813 85.9565625 34.39015625 86.578125 34.9453125 C111.41239475 58.03886241 122.51104172 95.32805853 123.91845703 128.25341797 C125.14200792 167.93254034 119.5534951 211.29323962 91.875 242.0625 C90.50216126 243.48126116 89.1275201 244.89828367 87.75 246.3125 C86.96625 247.323125 86.1825 248.33375 85.375 249.375 C67.80622522 269.03529559 40.07244888 281.02230865 13.92724609 282.53344727 C9.70144168 282.67707205 5.47790208 282.69855709 1.25 282.6875 C0.50254517 282.68728851 -0.24490967 282.68707703 -1.01501465 282.68685913 C-13.1313063 282.65271186 -24.56918441 281.76203957 -36.25 278.3125 C-37.49910156 277.95027344 -38.74820312 277.58804687 -40.03515625 277.21484375 C-57.26299292 271.5867022 -70.47152183 261.79456514 -84.25 250.3125 C-84.58 295.8525 -84.91 341.3925 -85.25 388.3125 C-106.04 388.3125 -126.83 388.3125 -148.25 388.3125 C-148.25 261.5925 -148.25 134.8725 -148.25 4.3125 C-129.44 4.3125 -110.63 4.3125 -91.25 4.3125 C-89.93 13.5525 -88.61 22.7925 -87.25 32.3125 C-86.92 33.3025 -86.59 34.2925 -86.25 35.3125 C-85.88390625 34.91160156 -85.5178125 34.51070312 -85.140625 34.09765625 C-62.91742069 10.76329173 -31.73537783 -0.14610937 0 0 Z M-65.375 79.5 C-72.27442545 87.67915759 -77.20017137 96.22519243 -80.625 106.3125 C-80.98295654 107.36038696 -80.98295654 107.36038696 -81.34814453 108.42944336 C-84.77555564 119.25565119 -85.61958486 130.32790712 -85.5625 141.625 C-85.55686035 142.80489502 -85.5512207 143.98479004 -85.54541016 145.20043945 C-85.20818817 169.52549675 -77.76214638 190.97345556 -60.25 208.3125 C-48.70681332 219.12339771 -33.95256451 225.04616415 -18.25 226.3125 C-17.61320312 226.36535156 -16.97640625 226.41820312 -16.3203125 226.47265625 C1.26076526 227.23560868 17.62084951 220.69584758 30.75 209.3125 C47.63403274 193.66811724 55.82871565 171.72216218 56.85498047 148.98681641 C57.64494807 123.87958521 53.26960572 99.99375275 36.75 80.3125 C35.6671875 78.8275 35.6671875 78.8275 34.5625 77.3125 C27.86624743 69.4306814 18.36956739 63.8067873 8.75 60.3125 C7.88632813 59.99410156 7.02265625 59.67570312 6.1328125 59.34765625 C-19.73628954 51.39638834 -47.17454304 60.20610474 -65.375 79.5 Z " fill="#3396F7" transform="translate(1100.25,121.6875)"/>
<path d="M0 0 C20.79 0 41.58 0 63 0 C63.33 47.52 63.66 95.04 64 144 C66.97 141.36 69.94 138.72 73 136 C97.71781207 118.27727345 128.32891453 113.58312354 158.07885742 117.77368164 C178.68218244 121.31122903 196.32134182 130.15406366 211 145 C211.80179688 145.79148438 212.60359375 146.58296875 213.4296875 147.3984375 C236.27621109 171.19360566 241.18550122 204.75751197 241.11352539 236.38330078 C241.11324291 238.12859597 241.11340244 239.87389128 241.1139679 241.6191864 C241.11425351 246.3312644 241.10839505 251.04331668 241.10139394 255.75538874 C241.09512099 260.68945337 241.09455349 265.62351866 241.09336853 270.55758667 C241.09026681 279.88936668 241.08206909 289.2211349 241.07201904 298.55290973 C241.06082185 309.18171652 241.05533838 319.81052389 241.05032361 330.43933511 C241.03988547 352.2928981 241.02155445 374.14644495 241 396 C219.55 396 198.1 396 176 396 C175.97812622 388.69717896 175.97812622 388.69717896 175.95581055 381.24682617 C175.90533484 365.10968683 175.83886424 348.97264211 175.76428509 332.83559704 C175.71948139 323.05764538 175.68003195 313.27972889 175.65356445 303.50170898 C175.6304586 294.9707672 175.59692239 286.43993817 175.55129844 277.90908605 C175.52753444 273.39970834 175.50869629 268.89044113 175.50238609 264.38100243 C176.47100756 222.77305587 176.47100756 222.77305587 157.3515625 187.30078125 C146.86837802 177.53124078 132.19718662 174.26533314 118.16015625 174.71875 C103.44983869 176.02795008 89.22553254 179.51287579 79 191 C65.76221226 208.25343464 63.54314152 228.98348869 63.56762695 250.00634766 C63.55857669 251.61490108 63.5482417 253.22344769 63.53674316 254.83198547 C63.50952943 259.13452038 63.49993804 263.43692326 63.49388909 267.73953295 C63.48441104 272.25986847 63.4582013 276.78010887 63.43388367 281.30038452 C63.3904714 289.8314724 63.36177014 298.36254156 63.33856028 306.89370573 C63.31137187 316.61829841 63.26746968 326.3427942 63.22227156 336.06731725 C63.12978788 356.04483937 63.06014761 376.02235255 63 396 C42.21 396 21.42 396 0 396 C0 265.32 0 134.64 0 0 Z " fill="#5962F1" transform="translate(1735,5)"/>
<path d="M0 0 C2.34820625 2.12130093 4.58077243 4.25099052 6.73828125 6.5703125 C7.40472656 7.24320313 8.07117187 7.91609375 8.7578125 8.609375 C29.58474181 30.39427209 32.9131805 58.39282941 32.85180664 87.16870117 C32.85152414 89.03236896 32.85168373 90.89603686 32.85224915 92.75970459 C32.85253467 97.78989438 32.84667756 102.82006007 32.83967519 107.85024428 C32.83340086 113.11796046 32.83283463 118.38567727 32.83164978 123.65339661 C32.82854846 133.61554717 32.82035129 143.5776867 32.81030029 153.53983241 C32.79910184 164.8869076 32.79361931 176.23398333 32.78860486 187.58106267 C32.77816763 210.91081873 32.7605915 234.24056499 32.73828125 257.5703125 C25.19329892 257.59344101 17.64832024 257.61123019 10.10331059 257.62212467 C6.6001924 257.62735239 3.0970984 257.634448 -0.40600586 257.64575195 C-4.42952716 257.65865456 -8.45302289 257.66354162 -12.4765625 257.66796875 C-13.74008041 257.67313004 -15.00359833 257.67829132 -16.30540466 257.68360901 C-17.46653275 257.68368454 -18.62766083 257.68376007 -19.82397461 257.68383789 C-21.36618935 257.68716881 -21.36618935 257.68716881 -22.93955994 257.69056702 C-25.26171875 257.5703125 -25.26171875 257.5703125 -26.26171875 256.5703125 C-27.10010351 252.5359318 -27.68257764 248.45258564 -28.32421875 244.3828125 C-28.51048828 243.24521484 -28.69675781 242.10761719 -28.88867188 240.93554688 C-29.06462891 239.83146484 -29.24058594 238.72738281 -29.421875 237.58984375 C-29.58308838 236.58026611 -29.74430176 235.57068848 -29.91040039 234.53051758 C-30.26830345 231.51482991 -30.32241249 228.60415268 -30.26171875 225.5703125 C-32.72852377 228.02401944 -35.18077083 230.48569131 -37.5859375 233 C-53.34806877 249.30924657 -73.19914243 258.65596464 -95.9519043 259.74731445 C-127.50949238 260.23732092 -157.83909518 258.65544981 -182.17333984 235.68212891 C-196.15765401 222.03287984 -203.12847645 204.03163705 -203.50366211 184.58569336 C-203.5835005 163.99464747 -197.7459543 146.23312352 -184.26171875 130.5703125 C-183.58625 129.78269531 -182.91078125 128.99507812 -182.21484375 128.18359375 C-155.42077782 99.32457161 -113.31906231 96.23906119 -76.62719727 92.35327148 C-72.91506607 91.96012332 -69.2039889 91.55785074 -65.49312496 91.15293598 C-62.59797743 90.83799348 -59.70234664 90.52769215 -56.80655098 90.21877098 C-55.43783356 90.07224026 -54.06926094 89.92434961 -52.70084953 89.77498817 C-45.51730468 88.99366346 -38.48943409 88.39120217 -31.26171875 88.5703125 C-31.31412285 84.27769389 -31.40932356 79.98700666 -31.51171875 75.6953125 C-31.52589844 74.49132812 -31.54007813 73.28734375 -31.5546875 72.046875 C-31.85395705 61.03375545 -34.17208525 52.70139803 -41.859375 44.61328125 C-52.45765177 35.60043775 -64.71855761 34.2190555 -78.07421875 34.2578125 C-79.17314453 34.24169922 -80.27207031 34.22558594 -81.40429688 34.20898438 C-97.21194756 34.19966932 -112.75323188 39.20730104 -124.3046875 50.3515625 C-130.86155966 57.7853018 -134.77938367 66.37502217 -138.26171875 75.5703125 C-141.68308566 74.95302018 -144.84548762 74.09747472 -148.11206055 72.91210938 C-149.04620285 72.57505981 -149.98034515 72.23801025 -150.9427948 71.89074707 C-151.93878189 71.52719116 -152.93476898 71.16363525 -153.9609375 70.7890625 C-154.99233353 70.41551636 -156.02372955 70.04197021 -157.08638 69.65710449 C-159.26140058 68.8686172 -161.43580075 68.07841671 -163.60961914 67.28662109 C-166.94608284 66.07145462 -170.28438143 64.86144619 -173.62304688 63.65234375 C-175.73578586 62.88571637 -177.84841974 62.11879928 -179.9609375 61.3515625 C-180.96299728 60.98800659 -181.96505707 60.62445068 -182.9974823 60.24987793 C-183.92216812 59.91282837 -184.84685394 59.57577881 -185.79956055 59.22851562 C-186.61498825 58.93174927 -187.43041595 58.63498291 -188.27055359 58.32922363 C-190.26171875 57.5703125 -190.26171875 57.5703125 -192.26171875 56.5703125 C-191.24311953 41.63085728 -181.61319269 27.66335648 -172.26171875 16.5703125 C-171.5965625 15.71953125 -170.93140625 14.86875 -170.24609375 13.9921875 C-156.09359665 -3.28054518 -132.49601604 -13.51780941 -111.26171875 -18.4296875 C-110.49907715 -18.60612793 -109.73643555 -18.78256836 -108.95068359 -18.96435547 C-74.24249697 -26.49403947 -28.31726509 -23.78436954 0 0 Z M-39.70825195 137.33300781 C-40.37041214 137.41436478 -41.03257233 137.49572174 -41.71479797 137.57954407 C-47.85559302 138.33632157 -53.99456942 139.10791008 -60.13302326 139.88342667 C-64.24910198 140.40340962 -68.36561862 140.91897254 -72.48364258 141.42333984 C-76.47492543 141.91226162 -80.46459901 142.41280627 -84.45345116 142.92116547 C-85.96334616 143.11167974 -87.47374068 143.29828327 -88.98464394 143.48062897 C-104.69388774 145.38269003 -120.30305157 148.33895899 -131.53125 160.3515625 C-136.71945488 167.00370781 -138.00070221 174.06994779 -137.70703125 182.390625 C-136.53628879 190.75013692 -131.85589851 197.45060772 -125.26171875 202.5703125 C-110.64694065 211.76580404 -92.78358737 210.36632804 -76.60546875 206.75390625 C-61.72153507 202.51907274 -48.41122953 194.01456531 -40.26171875 180.5703125 C-34.03165963 168.91120187 -31.08232285 156.84204901 -31.19921875 143.6328125 C-31.20373047 142.94896484 -31.20824219 142.26511719 -31.21289062 141.56054688 C-31.22452315 139.89709646 -31.24245181 138.233692 -31.26171875 136.5703125 C-34.11269712 136.5703125 -36.87825467 136.98436938 -39.70825195 137.33300781 Z " fill="#447FF4" transform="translate(1459.26171875,143.4296875)"/>
<path d="M0 0 C20.79 0 41.58 0 63 0 C63.01458252 4.83825439 63.02916504 9.67650879 63.04418945 14.66137695 C63.09466685 30.69873182 63.16113776 46.7359915 63.23571491 62.77325153 C63.28051714 72.49066896 63.31996691 82.20805101 63.34643555 91.92553711 C63.36954261 100.40374159 63.40308011 108.88183263 63.44870156 117.35994691 C63.47246397 121.84137903 63.49130314 126.3227 63.49761391 130.8041935 C62.55924607 171.80826896 62.55924607 171.80826896 80 207.75 C91.40795958 218.31764113 107.02927882 221.04724754 122 221 C135.99384469 220.22256418 148.62945013 215.60869538 159 206 C175.16169767 187.24941453 176.11039128 163.8341114 176.20532227 140.20385742 C176.21492742 138.66501112 176.22493893 137.12616731 176.23532104 135.58732605 C176.26209094 131.45188026 176.28324954 127.31642338 176.30332303 123.18094039 C176.32535718 118.84345142 176.35265968 114.50599551 176.37937927 110.16853333 C176.42907265 101.97372962 176.474097 93.77890733 176.51740164 85.58406764 C176.56697507 76.246558 176.62181791 66.90908156 176.67708123 57.57160413 C176.79054222 38.38109902 176.89676247 19.19056302 177 0 C197.79 0 218.58 0 240 0 C240 90.75 240 181.5 240 275 C220.86 275 201.72 275 182 275 C180.26282249 273.26282249 180.39583091 270.79904359 180.02734375 268.43359375 C179.76147461 266.7465332 179.76147461 266.7465332 179.49023438 265.02539062 C179.30783203 263.84138672 179.12542969 262.65738281 178.9375 261.4375 C178.75123047 260.24962891 178.56496094 259.06175781 178.37304688 257.83789062 C177.91171698 254.89247669 177.45420899 251.94651904 177 249 C176.25447876 249.77815063 176.25447876 249.77815063 175.49389648 250.57202148 C171.27971149 254.89107422 167.10947954 258.75133538 162.0625 262.0625 C161.42554199 262.48096191 160.78858398 262.89942383 160.13232422 263.33056641 C152.83233077 267.95797182 145.15829595 271.20945516 137 274 C135.76894531 274.43441406 134.53789063 274.86882812 133.26953125 275.31640625 C107.66462774 282.80734132 74.65506969 279.68071997 51.19677734 267.02734375 C26.82526322 253.19468507 12.18740527 230.8941527 4.59765625 204.31298828 C0.4928278 188.42689973 -0.15163263 172.18935769 -0.11352539 155.87036133 C-0.11324283 154.164327 -0.1134026 152.45829256 -0.1139679 150.7522583 C-0.11425317 146.15180592 -0.10840029 141.55137997 -0.10139394 136.95093369 C-0.09511524 132.13165311 -0.09455304 127.31237182 -0.09336853 122.49308777 C-0.09026848 113.38091992 -0.08207306 104.26876415 -0.07201904 95.15660161 C-0.0608166 84.77686004 -0.05533707 74.39711788 -0.05032361 64.01737177 C-0.03988926 42.67823962 -0.02156037 21.33912402 0 0 Z " fill="#25A9F9" transform="translate(652,126)"/>
<path d="M0 0 C21.12 0 42.24 0 64 0 C64 25.41 64 50.82 64 77 C85.12 77 106.24 77 128 77 C128 95.15 128 113.3 128 132 C106.88 132 85.76 132 64 132 C64.09071865 155.32137843 64.09071865 155.32137843 64.20898438 178.64257812 C64.26336067 188.16021973 64.31477819 197.67780872 64.34643555 207.19555664 C64.36951097 214.12894336 64.4030142 221.06219063 64.44870156 227.99546653 C64.47250605 231.66181542 64.49131799 235.3280273 64.49761391 238.99445152 C64.50486295 243.10156041 64.53540753 247.20819652 64.56762695 251.31518555 C64.56619186 252.51209518 64.56475677 253.70900482 64.5632782 254.94218445 C64.69638911 267.01261766 66.26460992 278.43591009 74.4921875 287.67578125 C82.99836538 295.87671351 93.45300206 296.49022497 104.63745117 296.36035156 C106.46896729 296.32393555 108.3004834 296.28751953 110.1875 296.25 C116.065625 296.1675 121.94375 296.085 128 296 C128 313.82 128 331.64 128 350 C103.4256844 353.51061651 103.4256844 353.51061651 93.8125 353.375 C92.7208252 353.36484863 91.62915039 353.35469727 90.50439453 353.34423828 C65.08106259 352.86201363 41.34036138 345.23215866 23 327 C5.08933011 307.16345162 -0.37831507 281.82941058 -0.22705078 255.74267578 C-0.22648472 254.38102222 -0.22680702 253.01936805 -0.22793579 251.65771484 C-0.2285027 248.00984451 -0.2168574 244.3621094 -0.20278788 240.71427011 C-0.19016847 236.88397336 -0.18910128 233.05367249 -0.18673706 229.22335815 C-0.18055488 221.99185442 -0.16418889 214.76041215 -0.14403808 207.52893531 C-0.12157668 199.28693818 -0.11066006 191.0449379 -0.10064721 182.80291772 C-0.07981923 165.8685703 -0.04318451 148.93430741 0 132 C-12.87 132 -25.74 132 -39 132 C-39 113.85 -39 95.7 -39 77 C-26.13 77 -13.26 77 0 77 C0 51.59 0 26.18 0 0 Z " fill="#4F70F3" transform="translate(1566,49)"/>
</svg>
